<mxfile host="app.diagrams.net" modified="2023-04-03T06:40:11.917Z" agent="Mozilla/5.0 (Windows NT 10.0; Win64; x64) AppleWebKit/537.36 (KHTML, like Gecko) Chrome/109.0.0.0 Safari/537.36" version="21.1.2" etag="urokPASfsbsov_EnyuqG" type="github">
  <diagram name="第 1 页" id="PV1CcdMewTWnu5TyCM47">
    <mxGraphModel>
      <root>
        <mxCell id="0" />
        <mxCell id="1" parent="0" />
      </root>
    </mxGraphModel>
  </diagram>
</mxfile>
